<svg width="24" height="24" fill="#44a663" viewBox="0 0 24 24" xmlns="http://www.w3.org/2000/svg">
<path d="M10.07 11.37H13.93C14.43 11.37 14.83 10.97 14.83 10.47C14.83 9.97003 14.43 9.57002 13.93 9.57002H11.91L13.87 7.04002C14.31 6.45002 14.83 5.56002 14.83 4.72002C14.83 3.17002 13.56 1.90002 12 1.90002C10.44 1.90002 9.17001 3.16002 9.17001 4.72002C9.17001 5.22002 9.57001 5.62002 10.07 5.62002C10.57 5.62002 10.97 5.22002 10.97 4.72002C10.97 4.16002 11.43 3.70002 12 3.70002C12.57 3.70002 13.03 4.16002 13.03 4.72002C13.03 4.92002 12.87 5.36002 12.43 5.95002L9.36001 9.92002C9.15001 10.19 9.11001 10.56 9.26001 10.87C9.41001 11.18 9.72001 11.37 10.07 11.37Z" />
<path d="M14.03 13.9C13.75 13.9 13.52 14.03 13.35 14.23C12.98 14.03 12.57 13.9 12.13 13.9C10.59 13.9 9.33002 15.3 9.33002 17.03C9.33002 18.76 10.58 20.16 12.13 20.16C12.57 20.16 12.98 20.04 13.35 19.83C13.52 20.02 13.75 20.16 14.03 20.16C14.53 20.16 14.93 19.76 14.93 19.26V14.8C14.93 14.3 14.53 13.9 14.03 13.9ZM12.13 18.36C11.59 18.36 11.13 17.75 11.13 17.03C11.13 16.31 11.59 15.7 12.13 15.7C12.67 15.7 13.13 16.31 13.13 17.03C13.13 17.75 12.67 18.36 12.13 18.36Z" />
<path d="M7.79003 12.25C7.29003 12.25 6.89003 12.65 6.89003 13.15V14.12C6.58003 13.99 6.25003 13.91 5.89003 13.91C4.35003 13.91 3.09003 15.31 3.09003 17.04C3.09003 18.77 4.34003 20.17 5.89003 20.17C6.33003 20.17 6.74003 20.05 7.11003 19.84C7.28003 20.03 7.51003 20.17 7.79003 20.17C8.29003 20.17 8.69003 19.77 8.69003 19.27V13.16C8.69003 12.66 8.29003 12.26 7.79003 12.26V12.25ZM5.89003 18.36C5.35003 18.36 4.89003 17.75 4.89003 17.03C4.89003 16.31 5.35003 15.7 5.89003 15.7C6.43003 15.7 6.89003 16.31 6.89003 17.03C6.89003 17.75 6.43003 18.36 5.89003 18.36Z" />
<path d="M20.25 13.94C19.77 13.8 19.27 14.07 19.13 14.55L18.26 17.52L17.39 14.55C17.25 14.07 16.75 13.8 16.27 13.94C15.79 14.08 15.52 14.58 15.66 15.06L16.97 19.52C17.05 19.79 17.25 20 17.5 20.1L17.25 20.95C17.11 21.43 17.38 21.93 17.86 22.07C17.94 22.1 18.03 22.11 18.11 22.11C18.5 22.11 18.86 21.86 18.97 21.46L20.85 15.06C20.99 14.58 20.72 14.08 20.24 13.94H20.25Z" />
<path d="M16.07 6.05002C17.78 7.17002 18.81 9.04002 18.81 11.05C18.81 11.55 19.21 11.95 19.71 11.95C20.21 11.95 20.61 11.55 20.61 11.05C20.61 8.43002 19.28 6.00002 17.06 4.55002C16.64 4.28002 16.09 4.39002 15.81 4.81002C15.54 5.23002 15.66 5.78002 16.07 6.06002V6.05002Z" />
<path d="M4.29001 11.94C4.79001 11.94 5.19001 11.54 5.19001 11.04C5.19001 9.03 6.21001 7.16 7.93001 6.04C8.35001 5.77 8.46001 5.21 8.19001 4.79C7.92001 4.37 7.36001 4.26 6.94001 4.53C4.72001 5.98 3.39001 8.41 3.39001 11.03C3.39001 11.53 3.79001 11.93 4.29001 11.93V11.94Z" />
</svg>
