<svg width="24" height="24" viewBox="0 0 24 24" fill="#F03E58" xmlns="http://www.w3.org/2000/svg">
<path d="M18.2915 19.5H8.42153C7.64153 19.5 7.12153 19.5 6.93153 19.4C6.76153 19.3099 6.62153 19.17 6.54153 19.01C6.44153 18.82 6.44153 18.31 6.44153 17.53V8.85995L11.9615 4.73995C12.1315 4.61995 12.2215 4.52995 12.2515 4.48995C12.3415 4.52995 12.4415 4.61995 12.6115 4.73995L17.7515 8.56995C18.1515 8.86995 18.7115 8.78995 19.0115 8.38995C19.3115 7.98995 19.2315 7.42995 18.8315 7.12995L13.7015 3.29995C13.3415 3.02995 13.1015 2.84995 12.7615 2.75995C12.4615 2.67995 12.1415 2.67995 11.8415 2.75995C11.5015 2.84995 11.2615 3.02995 10.9015 3.29995L2.76153 9.36995C2.36153 9.66995 2.28153 10.23 2.58153 10.63C2.76153 10.87 3.03153 10.99 3.30153 10.99C3.49153 10.99 3.68153 10.93 3.84153 10.81L4.65153 10.2V17.52C4.65153 18.63 4.65153 19.24 4.94153 19.82C5.20153 20.33 5.61153 20.7299 6.12153 21C6.70153 21.29 7.31153 21.29 8.42153 21.29H18.2915C18.7915 21.29 19.1915 20.8899 19.1915 20.3899C19.1915 19.8899 18.7915 19.49 18.2915 19.49V19.5Z"/>
<path d="M20.8915 13.0999H12.8615L14.3215 11.6399C14.6715 11.2899 14.6715 10.7199 14.3215 10.3699C13.9715 10.0199 13.4015 10.0199 13.0515 10.3699L10.0515 13.3699C10.0515 13.3699 10.0515 13.3899 10.0315 13.3899C9.96149 13.4699 9.89149 13.5599 9.85149 13.6599C9.80149 13.7699 9.78149 13.8899 9.78149 13.9999C9.78149 14.0199 9.7915 14.0399 9.7915 14.0599C9.7915 14.1499 9.81149 14.2499 9.85149 14.3399C9.88149 14.4199 9.9315 14.4799 9.9815 14.5399C10.0015 14.5699 10.0115 14.5999 10.0415 14.6299L12.9915 17.6299C13.1715 17.8099 13.4015 17.8999 13.6315 17.8999C13.8615 17.8999 14.0915 17.8099 14.2615 17.6399C14.6115 17.2899 14.6215 16.7199 14.2615 16.3699L12.8115 14.8999H20.8615C21.3615 14.8999 21.7615 14.4999 21.7615 13.9999C21.7615 13.4999 21.3615 13.0999 20.8615 13.0999H20.8915Z" />
</svg>
