<svg width="24" height="24" fill="#fbb118" viewBox="0 0 24 24"  xmlns="http://www.w3.org/2000/svg">
<path d="M10.08 15.7C10.58 15.7 10.98 15.3 10.98 14.8V13.13C11.41 13.06 11.75 12.71 11.75 12.26C11.75 11.81 11.41 11.45 10.98 11.39V8.4C10.98 7.9 10.58 7.5 10.08 7.5C9.57998 7.5 9.17998 7.9 9.17998 8.4V11.36H7.89998V9.04C7.89998 8.54 7.49998 8.14 6.99998 8.14C6.49998 8.14 6.09998 8.54 6.09998 9.04V12.26C6.09998 12.76 6.49998 13.16 6.99998 13.16H9.17998V14.8C9.17998 15.3 9.57998 15.7 10.08 15.7Z" />
<path d="M17.9 9.6C17.9 8.44 16.96 7.5 15.8 7.5H14.68C13.52 7.5 12.58 8.44 12.58 9.6V10.4C12.58 10.85 12.72 11.26 12.96 11.6C12.72 11.94 12.58 12.35 12.58 12.8V13.6C12.58 14.76 13.52 15.7 14.68 15.7H15.8C16.96 15.7 17.9 14.76 17.9 13.6V12.8C17.9 12.35 17.76 11.94 17.52 11.6C17.76 11.26 17.9 10.85 17.9 10.4V9.6ZM14.38 9.6C14.38 9.43 14.51 9.3 14.68 9.3H15.8C15.97 9.3 16.1 9.43 16.1 9.6V10.4C16.1 10.57 15.97 10.7 15.8 10.7H14.68C14.51 10.7 14.38 10.57 14.38 10.4V9.6ZM16.1 13.6C16.1 13.77 15.97 13.9 15.8 13.9H14.68C14.51 13.9 14.38 13.77 14.38 13.6V12.8C14.38 12.63 14.51 12.5 14.68 12.5H15.8C15.97 12.5 16.1 12.63 16.1 12.8V13.6Z" />
<path d="M19 4.99998C15.14 1.13998 8.85998 1.13998 4.99998 4.99998C1.13998 8.85998 1.13998 15.14 4.99998 19C6.92998 20.93 9.46998 21.89 12 21.89C13.99 21.89 15.98 21.29 17.68 20.1V20.7C17.68 21.2 18.08 21.6 18.58 21.6C19.08 21.6 19.48 21.2 19.48 20.7V17.87C19.48 17.37 19.08 16.97 18.58 16.97H15.75C15.25 16.97 14.85 17.37 14.85 17.87C14.85 18.37 15.25 18.77 15.75 18.77H16.45C13.31 20.84 9.02998 20.49 6.26998 17.73C3.10998 14.57 3.10998 9.42998 6.26998 6.26998C9.42998 3.10998 14.57 3.10998 17.73 6.26998C19.26 7.79998 20.1 9.82998 20.1 12C20.1 12.5 20.5 12.9 21 12.9C21.5 12.9 21.9 12.5 21.9 12C21.9 9.35998 20.87 6.86998 19 4.99998Z" />
</svg>
